<svg xmlns="http://www.w3.org/2000/svg" viewBox="0 0 32 32" width="100%" height="100%" aria-label="WhatsApp">
  <circle cx="16" cy="16" r="16" fill="#25D366"/>
  <path fill="#FFFFFF" d="M19.11 17.54c-.29-.15-1.7-.84-1.96-.93-.26-.1-.45-.15-.64.15-.19.29-.74.93-.9 1.12-.17.19-.33.22-.62.07-.29-.15-1.22-.45-2.32-1.43-.86-.77-1.44-1.72-1.61-2.01-.17-.29-.02-.45.13-.6.13-.13.29-.33.45-.5.15-.17.19-.29.29-.48.1-.19.05-.36-.02-.5-.07-.15-.64-1.54-.88-2.11-.23-.55-.47-.48-.64-.49l-.55-.01c-.19 0-.5.07-.76.36-.26.29-1 1-.76 2.43.24 1.43 1.05 2.81 1.19 3 .15.19 2.07 3.16 5.01 4.43.7.3 1.25.48 1.68.61.71.23 1.35.2 1.86.12.57-.09 1.7-.69 1.94-1.36.24-.67.24-1.24.17-1.36-.07-.12-.26-.19-.55-.34z"/>
</svg>
